<svg id="Capa_1" data-name="Capa 1" xmlns="http://www.w3.org/2000/svg" xmlns:xlink="http://www.w3.org/1999/xlink" viewBox="0 0 239.98 108.14"><defs><style>.cls-1{fill:url(#Degradado_sin_nombre_10);}.cls-2{fill:url(#Degradado_sin_nombre_10-2);}.cls-3{fill:url(#Degradado_sin_nombre_9);}</style><linearGradient id="Degradado_sin_nombre_10" x1="225.26" y1="466.45" x2="225.26" y2="396.68" gradientUnits="userSpaceOnUse"><stop offset="0.16" stop-color="#585757"/><stop offset="0.45" stop-color="#979797"/><stop offset="0.8" stop-color="#585757"/></linearGradient><linearGradient id="Degradado_sin_nombre_10-2" x1="274.5" y1="420.67" x2="417.55" y2="420.67" xlink:href="#Degradado_sin_nombre_10"/><linearGradient id="Degradado_sin_nombre_9" x1="64.53" y1="30.52" x2="64.53" y2="-1.17" gradientUnits="userSpaceOnUse"><stop offset="0.16" stop-color="#585757"/><stop offset="0.5" stop-color="#979797"/><stop offset="0.8" stop-color="#585757"/></linearGradient></defs><title>SP</title><path class="cls-1" d="M246.63,431.42q12.89,0,19.6,4.77t6.71,14.41a26.36,26.36,0,0,1-1.68,9.64,17.07,17.07,0,0,1-5.34,7.23,25.81,25.81,0,0,1-9.38,4.51,52,52,0,0,1-13.67,1.57H177.58l13.94-18h53q3.88,0,5.66-1.2a4.4,4.4,0,0,0,1.78-3.93,4.27,4.27,0,0,0-1.78-3.88q-1.78-1.15-5.66-1.15H206.39a41.36,41.36,0,0,1-11.74-1.47,23.57,23.57,0,0,1-8.17-4.09,16.08,16.08,0,0,1-4.82-6.34,20.92,20.92,0,0,1-1.57-8.23,22.53,22.53,0,0,1,1.73-9,17.26,17.26,0,0,1,5.34-6.86,26.3,26.3,0,0,1,9.33-4.4,52,52,0,0,1,13.67-1.57H271l-13.94,18.23H208.49a11.65,11.65,0,0,0-5.61,1A4,4,0,0,0,201,426.5a4.09,4.09,0,0,0,1.83,3.82,11.17,11.17,0,0,0,5.61,1.1Z" transform="translate(-177.58 -366.6)"/><path class="cls-2" d="M417.55,407.17A37.23,37.23,0,0,1,414,423.58a34.18,34.18,0,0,1-10.43,12.53,52,52,0,0,1-16.73,8.08,79.44,79.44,0,0,1-22.47,2.91H307.8v27.64H274.5V419.46H367.6q7.76,0,12-3.39a11,11,0,0,0,4.28-9.05,10.75,10.75,0,0,0-4.28-9q-4.29-3.31-12-3.31H274.5l22.15-28.13h67.89a77.46,77.46,0,0,1,22.47,3,50.31,50.31,0,0,1,16.65,8.32A35.73,35.73,0,0,1,414,390.69,37.77,37.77,0,0,1,417.55,407.17Z" transform="translate(-177.58 -366.6)"/><polygon class="cls-3" points="89.03 27.91 17.22 27.91 39.9 0 111.84 0 89.03 27.91"/></svg>