<svg id="Capa_1" data-name="Capa 1" xmlns="http://www.w3.org/2000/svg" xmlns:xlink="http://www.w3.org/1999/xlink" viewBox="0 0 147.29 66.37"><defs><style>.cls-1{fill:url(#Degradado_sin_nombre_10);}.cls-2{fill:url(#Degradado_sin_nombre_10-2);}.cls-3{fill:url(#Degradado_sin_nombre_9);}</style><linearGradient id="Degradado_sin_nombre_10" x1="34.25" y1="66.8" x2="34.25" y2="23.98" gradientUnits="userSpaceOnUse"><stop offset="0.16" stop-color="#585757"/><stop offset="0.45" stop-color="#979797"/><stop offset="0.8" stop-color="#585757"/></linearGradient><linearGradient id="Degradado_sin_nombre_10-2" x1="64.47" y1="38.7" x2="152.28" y2="38.7" xlink:href="#Degradado_sin_nombre_10"/><linearGradient id="Degradado_sin_nombre_9" x1="39.61" y1="18.73" x2="39.61" y2="-0.72" gradientUnits="userSpaceOnUse"><stop offset="0.16" stop-color="#585757"/><stop offset="0.5" stop-color="#979797"/><stop offset="0.8" stop-color="#585757"/></linearGradient></defs><title>SP2</title><path class="cls-1" d="M47.37,45.3q7.91,0,12,2.93t4.12,8.84a16.18,16.18,0,0,1-1,5.92,10.48,10.48,0,0,1-3.28,4.44,15.84,15.84,0,0,1-5.76,2.77,31.93,31.93,0,0,1-8.39,1H5L13.54,60.1H46.09a6.34,6.34,0,0,0,3.47-.74,2.7,2.7,0,0,0,1.09-2.41,2.62,2.62,0,0,0-1.09-2.38,6.58,6.58,0,0,0-3.47-.71H22.67a25.39,25.39,0,0,1-7.2-.9,14.46,14.46,0,0,1-5-2.51,9.87,9.87,0,0,1-3-3.89,12.84,12.84,0,0,1-1-5A13.83,13.83,0,0,1,7.59,36a10.59,10.59,0,0,1,3.28-4.21,16.15,16.15,0,0,1,5.72-2.7,31.93,31.93,0,0,1,8.39-1H62.36L53.8,39.32H24a7.15,7.15,0,0,0-3.44.64,2.44,2.44,0,0,0-1.13,2.32,2.51,2.51,0,0,0,1.13,2.35A6.86,6.86,0,0,0,24,45.3Z" transform="translate(-4.99 -5.52)"/><path class="cls-2" d="M152.28,30.42a22.85,22.85,0,0,1-2.18,10.07,21,21,0,0,1-6.4,7.69,31.92,31.92,0,0,1-10.27,5,48.76,48.76,0,0,1-13.79,1.79H84.91v17H64.47V38h57.15q4.76,0,7.39-2.08a6.73,6.73,0,0,0,2.63-5.56A6.6,6.6,0,0,0,129,24.81q-2.63-2-7.39-2H64.47L78.07,5.52h41.67a47.54,47.54,0,0,1,13.79,1.84,30.88,30.88,0,0,1,10.22,5.11,21.93,21.93,0,0,1,6.35,7.84A23.18,23.18,0,0,1,152.28,30.42Z" transform="translate(-4.99 -5.52)"/><polygon class="cls-3" points="54.64 17.13 10.57 17.13 24.49 0 68.64 0 54.64 17.13"/></svg>